# xmcd
#
# Track frame offsets:
#	150
#	14012
#	33687
#	46977
#	60080
#	78093
#	102093
#	120298
#	138266
#	152563
#	165333
#
# Disc length: 2786 seconds
#
# Revision: 1
# Processed by: cddbd v1.5.2PL0 Copyright (c) Steve Scherf et al.
# Submitted via: audiograbber 1.83.01
#
DISCID=750ae00b
DTITLE=John D Hale band - Lost
DYEAR=2010
DGENRE=alt country
TTITLE0=Heartbreaker
TTITLE1=Some day he might
TTITLE2=Only time will tell
TTITLE3=Lost
TTITLE4=What love is all about
TTITLE5=LA county
TTITLE6=Pistol in each hand
TTITLE7=Stake our claim again
TTITLE8=Sweet Suzanne
TTITLE9=Love pulled the trigger
TTITLE10=Put me in the ground
EXTD=
EXTT0=
EXTT1=
EXTT2=
EXTT3=
EXTT4=
EXTT5=
EXTT6=
EXTT7=
EXTT8=
EXTT9=
EXTT10=
PLAYORDER=
